<?xml version="1.0" standalone="no"?>
<!DOCTYPE svg PUBLIC "-//W3C//DTD SVG 20010904//EN"
 "http://www.w3.org/TR/2001/REC-SVG-20010904/DTD/svg10.dtd">
<svg version="1.0" xmlns="http://www.w3.org/2000/svg"
 width="748.000000pt" height="748.000000pt" viewBox="0 0 748.000000 748.000000"
 preserveAspectRatio="xMidYMid meet">
<metadata>
Created by potrace 1.14, written by Peter Selinger 2001-2017
</metadata>
<g transform="translate(0.000000,748.000000) scale(0.100000,-0.100000)"
fill="#000000" stroke="none">
<path d="M233 6356 c-9 -14 -9 -195 0 -189 4 2 7 -1 7 -6 0 -6 -3 -11 -7 -11
-5 0 -8 -105 -8 -234 0 -129 3 -232 8 -229 4 2 7 -1 7 -6 0 -6 -3 -11 -7 -11
-5 0 -8 -105 -8 -234 0 -129 3 -232 7 -229 5 2 8 -1 8 -6 0 -6 -3 -11 -7 -11
-5 0 -8 -105 -8 -234 0 -129 3 -232 8 -229 4 2 7 -1 7 -6 0 -6 -3 -11 -7 -11
-5 0 -8 -105 -8 -234 0 -129 3 -232 7 -229 5 2 8 -1 8 -6 0 -6 -3 -11 -7 -11
-5 0 -8 -105 -8 -234 0 -129 3 -232 7 -229 5 2 8 -1 8 -6 0 -6 -3 -11 -7 -11
-5 0 -8 -105 -8 -234 0 -129 3 -232 8 -229 4 2 7 -1 7 -6 0 -6 -3 -11 -7 -11
-5 0 -8 -105 -8 -234 0 -129 3 -232 7 -229 5 2 8 -1 8 -6 0 -6 -3 -11 -7 -11
-5 0 -8 -105 -8 -234 0 -129 3 -232 8 -229 4 2 7 -1 7 -6 0 -6 -3 -11 -7 -11
-5 0 -8 -105 -8 -234 0 -129 3 -232 7 -229 5 2 8 -1 8 -6 0 -6 -3 -11 -7 -11
-10 0 -10 -287 0 -296 9 -9 6860 -10 6875 0 6 3 14 1 17 -4 5 -7 12 -5 22 7 8
10 11 11 7 3 -4 -8 -3 -12 1 -7 12 11 14 47 2 47 -5 0 -4 7 3 15 8 10 9 15 1
15 -7 0 -8 8 -1 25 7 17 6 25 -1 25 -8 0 -7 5 1 15 8 10 9 15 1 15 -7 0 -8 8
-1 25 7 17 6 25 -1 25 -8 0 -7 5 1 15 8 10 9 15 1 15 -7 0 -8 8 -1 25 7 17 6
25 -1 25 -8 0 -7 5 1 15 8 9 8 15 2 15 -7 0 -8 10 -2 30 6 20 5 30 -2 30 -6 0
-6 6 2 15 7 8 8 15 3 15 -5 0 -10 7 -10 15 0 8 5 15 10 15 5 0 4 6 -2 14 -9
11 -9 15 1 19 10 4 10 6 -1 6 -11 1 -11 4 -1 16 10 12 10 15 0 15 -10 0 -10 3
-1 14 9 11 9 15 -1 19 -10 4 -10 6 1 6 11 1 11 4 1 16 -7 8 -8 15 -3 15 5 0 9
9 9 20 0 11 -4 20 -9 20 -5 0 -4 7 3 15 9 11 9 15 1 15 -9 0 -9 5 -1 20 8 15
8 20 -1 20 -8 0 -8 4 1 15 8 10 9 15 1 15 -7 0 -8 8 -1 25 7 17 6 25 -1 25 -8
0 -7 5 1 15 7 8 8 15 3 15 -5 0 -9 9 -9 20 0 11 4 20 9 20 5 0 4 6 -2 14 -9
11 -9 15 1 19 10 4 10 6 -1 6 -11 1 -11 4 -1 16 10 12 10 15 0 15 -10 0 -10 3
-1 14 9 11 9 15 -1 19 -10 4 -10 6 1 6 11 1 11 4 1 16 -10 12 -10 15 1 15 11
0 11 2 -1 10 -12 8 -12 10 -1 10 10 0 11 3 2 14 -9 11 -9 15 1 19 10 4 10 6
-1 6 -11 1 -11 4 -1 16 10 12 10 15 0 15 -10 0 -10 3 -1 14 9 11 9 15 -1 19
-10 4 -10 6 1 6 11 1 11 4 1 16 -10 12 -10 15 1 15 11 0 11 2 -1 10 -12 8 -12
10 -1 10 10 0 11 3 2 14 -9 11 -9 15 1 19 10 4 10 6 -1 6 -11 1 -11 4 -1 16
10 12 10 15 0 15 -10 0 -10 3 -1 14 9 11 9 15 -1 19 -10 4 -10 6 1 6 11 1 11
4 1 16 -10 12 -10 15 1 15 11 0 11 2 -1 10 -12 8 -12 10 -1 10 10 0 11 3 2 14
-9 11 -9 15 1 19 10 4 10 6 -1 6 -11 1 -11 4 -1 16 10 12 10 15 0 15 -10 0
-10 3 -1 14 9 11 9 15 -1 19 -10 4 -10 6 1 6 11 1 11 4 1 16 -7 8 -8 15 -3 15
5 0 9 9 9 20 0 11 -4 20 -9 20 -5 0 -4 7 3 15 7 8 8 15 3 15 -5 0 -10 7 -10
15 0 8 5 15 10 15 5 0 4 6 -2 14 -9 11 -9 15 1 19 10 4 10 6 -1 6 -11 1 -11 4
-1 16 10 12 10 15 0 15 -10 0 -10 3 -1 14 9 11 9 15 -1 19 -10 4 -10 6 1 6 11
1 11 4 1 16 -7 8 -8 15 -3 15 5 0 9 9 9 20 0 11 -4 20 -9 20 -5 0 -4 7 3 15 9
11 9 15 1 15 -9 0 -9 5 -1 20 8 15 8 20 -1 20 -8 0 -8 4 1 15 8 10 9 15 1 15
-7 0 -8 8 -1 25 7 17 6 25 -1 25 -8 0 -7 5 1 15 8 9 8 15 2 15 -7 0 -8 10 -2
30 6 20 5 30 -2 30 -6 0 -6 6 2 15 7 8 8 15 3 15 -5 0 -10 7 -10 15 0 8 5 15
10 15 5 0 4 6 -2 14 -9 11 -9 15 1 19 10 4 10 6 -1 6 -11 1 -11 4 -1 16 10 12
10 15 0 15 -10 0 -10 3 -1 14 9 11 9 15 -1 19 -10 4 -10 6 1 6 11 1 11 4 1 16
-7 8 -8 15 -3 15 5 0 9 9 9 20 0 11 -4 20 -9 20 -5 0 -4 7 3 15 9 11 9 15 1
15 -9 0 -9 5 -1 20 8 15 8 20 -1 20 -8 0 -8 4 1 15 8 10 9 15 1 15 -7 0 -8 8
-1 25 7 17 6 25 -1 25 -8 0 -7 5 1 15 8 9 8 15 2 15 -7 0 -8 10 -2 30 6 20 5
30 -2 30 -6 0 -6 6 2 15 7 8 8 15 3 15 -5 0 -10 7 -10 15 0 8 5 15 10 15 5 0
4 6 -2 14 -9 11 -9 15 1 19 10 4 10 6 -1 6 -11 1 -11 4 -1 16 10 12 10 15 0
15 -10 0 -10 3 -1 14 9 11 9 15 -1 19 -10 4 -10 6 1 6 11 1 11 4 1 16 -7 8 -8
15 -3 15 5 0 9 9 9 20 0 11 -4 20 -9 20 -5 0 -4 7 3 15 7 8 8 15 3 15 -5 0
-10 7 -10 15 0 8 5 15 10 15 5 0 4 6 -2 14 -9 11 -9 15 1 19 10 4 10 6 -1 6
-11 1 -11 4 -1 16 10 12 10 15 0 15 -10 0 -10 3 -1 14 9 11 9 15 -1 19 -10 4
-10 6 1 6 11 1 11 4 1 16 -10 12 -10 15 1 15 11 0 11 2 -1 10 -12 8 -12 10 -1
10 10 0 11 3 2 14 -9 11 -9 15 1 19 10 4 10 6 -1 6 -11 1 -11 4 -1 16 10 12
10 15 0 15 -10 0 -10 3 -1 14 9 11 9 15 -1 19 -10 4 -10 6 1 6 11 1 11 4 1 16
-10 12 -10 15 1 15 11 0 11 2 -1 10 -12 8 -12 10 -1 10 10 0 11 3 2 14 -9 11
-9 15 1 19 10 4 10 6 -1 6 -11 1 -11 4 -1 16 10 12 10 15 0 15 -10 0 -10 3 -1
14 9 11 9 15 -1 19 -10 4 -10 6 1 6 11 1 11 4 1 16 -10 12 -10 15 1 15 11 0
11 2 -1 10 -12 8 -12 10 -1 10 10 0 11 3 2 14 -9 11 -9 15 1 19 10 4 10 6 -1
6 -11 1 -11 4 -1 16 10 12 10 15 0 15 -10 0 -10 3 -1 14 9 11 9 15 -1 19 -10
4 -10 6 1 6 11 1 11 4 1 16 -10 12 -10 15 1 15 11 0 11 2 -1 10 -12 8 -12 10
-1 10 10 0 11 3 2 14 -9 11 -9 15 1 19 10 4 10 6 -1 6 -11 1 -11 4 -1 16 10
12 10 15 0 15 -10 0 -10 3 -1 14 9 11 9 15 -1 19 -10 4 -10 6 1 6 11 1 11 4 1
16 -10 12 -10 15 1 15 11 0 11 2 -1 10 -12 8 -12 10 -1 10 10 0 11 3 2 14 -9
11 -9 15 1 19 10 4 10 6 -1 6 -11 1 -11 4 -1 16 10 12 10 15 0 15 -10 0 -10 3
-1 14 9 11 9 15 -1 19 -10 4 -10 6 1 6 11 1 11 4 1 16 -10 12 -10 15 1 15 11
0 11 2 -1 10 -12 8 -12 10 -1 10 10 0 11 3 2 14 -9 11 -9 15 1 19 10 4 10 6
-1 6 -11 1 -11 4 -1 16 10 12 10 15 0 15 -10 0 -10 3 -1 14 9 11 9 15 -1 19
-10 4 -10 6 1 6 11 1 11 4 1 16 -10 12 -10 15 1 15 11 0 11 2 -1 10 -12 8 -12
10 -1 10 10 0 11 3 2 14 -9 11 -9 15 1 19 10 4 10 6 -1 6 -11 1 -11 4 -1 16
10 12 10 15 0 15 -10 0 -10 3 -1 14 9 11 9 15 -1 19 -10 4 -10 6 1 6 11 1 11
4 1 16 -7 8 -8 15 -3 15 5 0 9 9 9 20 0 11 -4 20 -9 20 -5 0 -4 7 3 15 7 8 8
15 3 15 -5 0 -10 7 -10 15 0 8 5 15 10 15 5 0 4 6 -2 14 -9 11 -9 15 1 19 10
4 10 6 -1 6 -11 1 -11 4 -1 16 10 12 10 15 0 15 -10 0 -10 3 -1 14 9 11 9 15
-1 19 -10 4 -10 6 1 6 11 1 11 4 1 16 -7 8 -8 15 -3 15 5 0 9 9 9 20 0 11 -4
20 -9 20 -5 0 -4 7 3 15 9 11 9 15 1 15 -9 0 -9 5 -1 20 8 15 8 20 -1 20 -8 0
-8 4 1 15 8 10 9 15 1 15 -7 0 -8 8 -1 25 7 17 6 25 -1 25 -8 0 -7 5 1 15 8 9
8 15 2 15 -7 0 -8 10 -2 30 6 20 5 30 -2 30 -6 0 -6 6 2 15 7 8 8 15 3 15 -5
0 -10 7 -10 15 0 8 5 15 10 15 5 0 4 6 -2 14 -9 11 -9 15 1 19 10 4 10 6 -1 6
-11 1 -11 4 -1 16 10 12 10 15 0 15 -10 0 -10 3 -1 14 9 11 9 15 -1 19 -10 4
-10 6 1 6 11 1 11 4 1 16 -7 9 -8 15 -2 15 12 0 10 33 -3 42 -6 5 -6 8 1 8 6
0 11 7 11 15 0 8 -4 12 -8 10 -4 -3 -10 3 -13 12 -6 14 -9 15 -15 4 -6 -9 -11
-10 -15 -2 -5 8 -13 8 -27 1 -13 -8 -19 -7 -19 0 0 7 -7 8 -17 3 -22 -10 -44
-10 -60 0 -8 5 -13 3 -13 -4 0 -8 -4 -8 -15 1 -12 10 -15 10 -15 0 0 -10 -3
-10 -15 0 -12 10 -15 10 -15 0 0 -9 -3 -10 -13 -1 -10 8 -17 7 -25 -1 -9 -9
-12 -9 -12 1 0 11 -3 11 -15 1 -12 -10 -15 -10 -15 0 0 10 -3 10 -15 0 -12
-10 -15 -10 -15 0 0 10 -3 10 -15 0 -12 -10 -15 -10 -15 0 0 10 -3 10 -15 0
-11 -9 -15 -9 -15 -1 0 8 -6 9 -17 4 -22 -10 -44 -10 -60 0 -8 5 -13 3 -13 -4
0 -8 -4 -8 -15 1 -12 10 -15 10 -15 0 0 -10 -3 -10 -15 0 -12 10 -15 10 -15 0
0 -9 -3 -10 -13 -1 -10 8 -17 7 -25 -1 -9 -9 -12 -9 -12 1 0 11 -3 11 -15 1
-12 -10 -15 -10 -15 0 0 10 -3 10 -15 0 -12 -10 -15 -10 -15 0 0 10 -3 10 -15
0 -12 -10 -15 -10 -15 0 0 10 -3 10 -15 0 -8 -7 -15 -8 -15 -3 0 5 -9 9 -20 9
-11 0 -20 -4 -20 -9 0 -5 -7 -4 -15 3 -12 10 -15 10 -15 0 0 -10 -3 -10 -15 0
-12 10 -15 10 -15 -1 0 -11 -2 -11 -10 1 -8 12 -10 12 -10 1 0 -11 -3 -11 -15
-1 -12 10 -15 10 -15 0 0 -10 -3 -10 -15 0 -11 9 -15 9 -15 1 0 -8 -6 -9 -17
-3 -21 9 -269 9 -279 -1 -4 -3 -15 -2 -25 4 -14 7 -19 6 -19 -2 0 -8 -4 -8
-15 1 -12 10 -15 10 -15 0 0 -10 -3 -10 -15 0 -12 10 -15 10 -15 -1 0 -11 -2
-11 -10 1 -8 12 -10 12 -10 1 0 -11 -3 -11 -15 -1 -12 10 -15 10 -15 0 0 -10
-3 -10 -15 0 -8 7 -15 8 -15 3 0 -5 -9 -9 -20 -9 -11 0 -20 4 -20 9 0 5 -7 4
-15 -3 -12 -10 -15 -10 -15 0 0 10 -3 10 -15 0 -12 -10 -15 -10 -15 0 0 10 -3
10 -15 0 -12 -10 -15 -10 -15 0 0 10 -3 10 -15 0 -12 -10 -15 -10 -15 0 0 9
-3 10 -13 1 -10 -8 -17 -7 -25 1 -9 9 -12 9 -12 -1 0 -11 -3 -11 -15 -1 -12
10 -15 10 -15 0 0 -10 -3 -10 -15 0 -12 10 -15 10 -15 -1 0 -10 -3 -10 -12 -1
-8 8 -17 8 -31 1 -14 -8 -18 -8 -13 0 4 6 2 11 -3 11 -6 0 -11 -5 -11 -11 0
-8 -5 -8 -15 1 -12 10 -15 10 -15 0 0 -10 -3 -10 -15 0 -12 10 -15 10 -15 -1
0 -11 -2 -11 -10 1 -8 12 -10 12 -10 1 0 -11 -3 -11 -15 -1 -12 10 -15 10 -15
0 0 -10 -3 -10 -15 0 -11 9 -15 9 -15 1 0 -8 -6 -9 -17 -3 -21 9 -269 9 -279
-1 -4 -3 -15 -2 -25 4 -14 7 -19 6 -19 -2 0 -8 -4 -8 -15 1 -12 10 -15 10 -15
0 0 -10 -3 -10 -15 0 -12 10 -15 10 -15 -1 0 -11 -2 -11 -10 1 -8 12 -10 12
-10 1 0 -11 -3 -11 -15 -1 -12 10 -15 10 -15 0 0 -10 -3 -10 -15 0 -8 7 -15 8
-15 3 0 -5 -9 -9 -20 -9 -11 0 -20 4 -20 9 0 5 -7 4 -15 -3 -12 -10 -15 -10
-15 0 0 10 -3 10 -15 0 -12 -10 -15 -10 -15 0 0 10 -3 10 -15 0 -12 -10 -15
-10 -15 0 0 10 -3 10 -15 0 -12 -10 -15 -10 -15 0 0 9 -3 10 -13 1 -10 -8 -17
-7 -25 1 -9 9 -12 9 -12 -1 0 -11 -3 -11 -15 -1 -12 10 -15 10 -15 0 0 -10 -3
-10 -15 0 -12 10 -15 10 -15 -1 0 -10 -3 -10 -12 -1 -8 8 -17 8 -31 1 -14 -8
-18 -8 -13 0 4 6 2 11 -3 11 -6 0 -11 -5 -11 -11 0 -8 -5 -8 -15 1 -12 10 -15
10 -15 0 0 -10 -3 -10 -15 0 -12 10 -15 10 -15 -1 0 -11 -2 -11 -10 1 -8 12
-10 12 -10 1 0 -11 -3 -11 -15 -1 -12 10 -15 10 -15 0 0 -10 -3 -10 -15 0 -11
9 -15 9 -15 1 0 -8 -6 -9 -17 -3 -21 9 -269 9 -279 -1 -4 -3 -15 -2 -25 4 -14
7 -19 6 -19 -2 0 -8 -4 -8 -15 1 -12 10 -15 10 -15 0 0 -10 -3 -10 -15 0 -12
10 -15 10 -15 -1 0 -11 -2 -11 -10 1 -8 12 -10 12 -10 1 0 -11 -3 -11 -15 -1
-12 10 -15 10 -15 0 0 -10 -3 -10 -15 0 -10 9 -15 9 -15 1 0 -6 -5 -11 -11
-11 -5 0 -7 5 -3 11 5 8 1 8 -13 0 -14 -7 -23 -7 -31 1 -9 9 -12 9 -12 -1 0
-11 -3 -11 -15 -1 -12 10 -15 10 -15 0 0 -10 -3 -10 -15 0 -12 10 -15 10 -15
0 0 -9 -3 -10 -13 -1 -10 8 -17 7 -25 -1 -9 -9 -12 -9 -12 1 0 11 -3 11 -15 1
-12 -10 -15 -10 -15 0 0 10 -3 10 -15 0 -12 -10 -15 -10 -15 0 0 10 -3 10 -15
0 -12 -10 -15 -10 -15 0 0 10 -3 10 -15 0 -11 -9 -15 -9 -15 -1 0 8 -6 9 -17
4 -22 -10 -44 -10 -60 0 -8 5 -13 3 -13 -4 0 -8 -4 -8 -15 1 -12 10 -15 10
-15 0 0 -10 -3 -10 -15 0 -12 10 -15 10 -15 0 0 -9 -3 -10 -13 -1 -10 8 -17 7
-25 -1 -9 -9 -12 -9 -12 1 0 11 -3 11 -15 1 -12 -10 -15 -10 -15 0 0 10 -3 10
-15 0 -12 -10 -15 -10 -15 0 0 10 -3 10 -15 0 -12 -10 -15 -10 -15 0 0 10 -3
10 -15 0 -11 -9 -15 -9 -15 -1 0 8 -6 9 -17 4 -22 -10 -44 -10 -60 0 -8 5 -13
3 -13 -4 0 -8 -4 -8 -15 1 -12 10 -15 10 -15 0 0 -10 -3 -10 -15 0 -12 10 -15
10 -15 0 0 -9 -3 -10 -13 -1 -10 8 -17 7 -25 -1 -9 -9 -12 -9 -12 1 0 11 -3
11 -15 1 -12 -10 -15 -10 -15 0 0 10 -3 10 -15 0 -12 -10 -15 -10 -15 0 0 10
-3 10 -15 0 -12 -10 -15 -10 -15 0 0 10 -3 10 -15 0 -11 -9 -15 -9 -15 -1 0 8
-6 9 -17 4 -22 -10 -44 -10 -60 0 -8 5 -13 3 -13 -4 0 -8 -4 -8 -15 1 -12 10
-15 10 -15 0 0 -10 -3 -10 -15 0 -12 10 -15 10 -15 0 0 -9 -3 -10 -13 -1 -10
8 -17 7 -25 -1 -9 -9 -12 -9 -12 1 0 11 -3 11 -15 1 -12 -10 -15 -10 -15 0 0
10 -3 10 -15 0 -12 -10 -15 -10 -15 0 0 10 -3 10 -15 0 -12 -10 -15 -10 -15 0
0 10 -3 10 -15 0 -8 -7 -15 -8 -15 -3 0 5 -9 9 -20 9 -11 0 -20 -4 -20 -9 0
-5 -7 -4 -15 3 -12 10 -15 10 -15 0 0 -10 -3 -10 -15 0 -12 10 -15 10 -15 -1
0 -11 -2 -11 -10 1 -8 12 -10 12 -10 1 0 -11 -3 -11 -15 -1 -12 10 -15 10 -15
0 0 -10 -3 -10 -15 0 -11 9 -15 9 -15 1 0 -8 -6 -9 -17 -3 -21 9 -269 9 -279
-1 -4 -3 -15 -2 -25 4 -14 7 -19 6 -19 -2 0 -8 -4 -8 -15 1 -12 10 -15 10 -15
0 0 -10 -3 -10 -15 0 -12 10 -15 10 -15 -1 0 -11 -2 -11 -10 1 -8 12 -10 12
-10 1 0 -11 -3 -11 -15 -1 -12 10 -15 10 -15 0 0 -10 -3 -10 -15 0 -8 7 -15 8
-15 3 0 -5 -9 -9 -20 -9 -11 0 -20 4 -20 9 0 5 -7 4 -15 -3 -12 -10 -15 -10
-15 0 0 10 -3 10 -15 0 -12 -10 -15 -10 -15 0 0 10 -3 10 -15 0 -12 -10 -15
-10 -15 0 0 10 -3 10 -15 0 -12 -10 -15 -10 -15 0 0 9 -3 10 -13 1 -10 -8 -17
-7 -25 1 -9 9 -12 9 -12 -1 0 -11 -3 -11 -15 -1 -12 10 -15 10 -15 0 0 -10 -3
-10 -15 0 -12 10 -15 10 -15 -1 0 -10 -3 -10 -12 -1 -8 8 -17 8 -31 1 -14 -8
-18 -8 -13 0 4 6 2 11 -3 11 -6 0 -11 -5 -11 -11 0 -8 -5 -8 -15 1 -12 10 -15
10 -15 0 0 -10 -3 -10 -15 0 -12 10 -15 10 -15 -1 0 -11 -2 -11 -10 1 -8 12
-10 12 -10 1 0 -11 -3 -11 -15 -1 -12 10 -15 10 -15 0 0 -10 -3 -10 -15 0 -11
9 -15 9 -15 1 0 -8 -6 -9 -17 -3 -21 9 -269 9 -279 -1 -4 -3 -15 -2 -25 4 -14
7 -19 6 -19 -2 0 -8 -4 -8 -15 1 -12 10 -15 10 -15 0 0 -10 -3 -10 -15 0 -12
10 -15 10 -15 -1 0 -11 -2 -11 -10 1 -8 12 -10 12 -10 1 0 -11 -3 -11 -15 -1
-12 10 -15 10 -15 0 0 -10 -3 -10 -15 0 -8 7 -15 8 -15 3 0 -5 -9 -9 -20 -9
-11 0 -20 4 -20 9 0 5 -7 4 -15 -3 -12 -10 -15 -10 -15 0 0 10 -3 10 -15 0
-12 -10 -15 -10 -15 0 0 10 -3 10 -15 0 -12 -10 -15 -10 -15 0 0 10 -3 10 -15
0 -12 -10 -15 -10 -15 0 0 9 -3 10 -13 1 -10 -8 -17 -7 -25 1 -9 9 -12 9 -12
-1 0 -11 -3 -11 -15 -1 -12 10 -15 10 -15 0 0 -10 -3 -10 -15 0 -12 10 -15 10
-15 -1 0 -10 -3 -10 -12 -1 -8 8 -17 8 -31 1 -14 -8 -18 -8 -13 0 4 6 2 11 -3
11 -6 0 -11 -5 -11 -11 0 -8 -5 -8 -15 1 -12 10 -15 10 -15 0 0 -10 -3 -10
-15 0 -12 10 -15 10 -15 -1 0 -11 -2 -11 -10 1 -8 12 -10 12 -10 1 0 -11 -3
-11 -15 -1 -12 10 -15 10 -15 0 0 -10 -3 -10 -15 0 -11 9 -15 9 -15 1 0 -7 -5
-9 -12 -5 -17 11 -239 11 -245 0z"/>
</g>
</svg>
